<?xml version="1.0" encoding="UTF-8"?>
<!-- Generator: Adobe Illustrator 23.0.1, SVG Export Plug-In . SVG Version: 6.00 Build 0)  -->
<svg version="1.1" id="Layer_1" xmlns="http://www.w3.org/2000/svg" xmlns:xlink="http://www.w3.org/1999/xlink" x="0px" y="0px" viewBox="0 0 1000 1000" style="enable-background:new 0 0 1000 1000;" xml:space="preserve">
<style type="text/css">
	.st0{fill:#60D0E4;}
	.st1{fill-rule:evenodd;clip-rule:evenodd;}
	.st2{fill-rule:evenodd;clip-rule:evenodd;fill:#638B18;}
	.st3{fill:#E1CAA2;}
	.st4{fill:#638B18;}
	.st5{fill:#FFFFFF;}
	.st6{fill:#231F20;}
</style>
<g transform="matrix(.38094 0 0 .38094 -67.511466 -92.267639)">
	<path class="st0" d="M2012.3,986.7c0,0,163.9,66.3,269.3,921c0,0-152.1,58.5-58.5,160c93.5,101.5,105.5,292.7,105.5,292.7   s-554.2,81.9-1518.1,11.7c0,0-386.3-788.3-234.3-1061.5l253.7,7.8c0,0,366.8,183.4,351.2-11.7c0,0,67.5-6.7,77.8-12.9   c10.2-6.2,89.2,145.5,301.3-107.6c0,0,330-126.1,446.9-197.8L2012.3,986.7z M754.3,1131.1c0,0-99.8-287-226-227.2   s9.2,274.2,44.8,320.1C573,1224,682,1152.9,754.3,1131.1L754.3,1131.1z"/>
	<g>
		<path class="st1" d="M1589.8,2592.8c-12.5-20.2-41.4-19.8-69.9-23.9c-18.6-2.7-60.9-7.3-62.1-30.6c-1.6-25.4,35.9-34.9,61.3-40.2    c60.7-12.8,121.2-10.6,194.4-10.6c31.3,0,73.1,2,76.6,23c2.9,17.6-12,30.2-23.9,38.3c-10.6,7.2-32,14-32.5,29.7    c-1.1,27.9,50.3,22.8,38.3,61.3c-4.4,14.2-29.1,22.3-47.9,27.9c-59.6,17.1-129.6,22.9-198.2,28.7c-62.1,5.3-141.5,17.1-214.5,6.7    c-20.9-3.1-48.5-11-49.8-25.8c-2.1-23.8,37.2-31.4,58.4-34.5c58.5-8.5,113.4-4.8,177.1-7.6c44.4-2,89.1-1.6,92.9-42.1    L1589.8,2592.8z M962.7,2601.4c43.1-2.1,103.7,0.7,146.5,11.5c11.2,2.8,32.5,7.4,32.6,19.1c0.1,12.5-28.1,17.8-44,22    c-91.1,23.6-184.3,31-285.3,43.1c-18.4,2.2-37.4,3.5-57.5,8.6c-11.7,3-40.3,11.5-39.3,25.9c1.3,17.7,47,12.9,66.1,14.4    c24.5,1.9,55.6,4.9,57.4,23c3.2,30.8-57.7,32.2-88.1,34.4c-83.8,6.3-155.8,3.2-233.6-6.7c-15.2-1.9-34.1-5.5-49.8-11.5    c-14-5.4-33.1-13.5-33.5-26.8c-0.6-19.9,30.6-27.5,47.9-31.6c64.2-15.2,134.3-21.1,201.1-35.4c42.4-9.1,84.2-25.3,118.7-39.3    c37.7-15.2,73.3-34.9,112-46C929.3,2601.8,941.7,2602.4,962.7,2601.4L962.7,2601.4z M1757.3,2668.5c10-1,37.2,0.1,37.3,13.4    c0.2,19.4-61.1,19.4-62.1,1c-0.7-11.5,13.5-13.2,24.9-14.4H1757.3z M1678.8,2684.8c13-1.2,34.8-0.5,35.4,13.4    c0.9,21-62.1,20.1-61.3,0C1653.4,2689.1,1665.2,2686,1678.8,2684.8L1678.8,2684.8z M1585,2701c5.7-0.4,19.6-1.1,29.7,1    c3.7,0.7,18.7,6.3,19.1,11.5c0.8,9.9-20,13.6-29.7,14.4c-19,1.6-53.2-0.8-54.6-12.4C1548.2,2703.9,1573.9,2701.8,1585,2701z     M1460.6,2710.6c15.1-2,49.3-1.3,49.8,15.3c0.7,23.7-76,23.8-76.6,1C1433.4,2714.5,1448.9,2712.1,1460.6,2710.6L1460.6,2710.6z     M1315,2712.3c12.8-0.9,25.5-0.8,39.3,1.9c6.7,1.3,27.2,6.1,27.9,15.3c1,17.6-48.7,20.8-72.9,19.2c-14.7-1-42-6.6-42.1-18.2    c-0.1-9.8,14.8-13.1,19.1-14.4C1296.7,2713.1,1302.5,2713,1315,2712.3L1315,2712.3z M419.8,2750.6c-4.6,14-50,21.7-67,11.5    C361.7,2746.6,399.8,2742.7,419.8,2750.6z M430.3,2775.7c-11.7,17.3-56.5,23.6-78.5,12.5C363.6,2771,408.3,2764.5,430.3,2775.7z     M448.5,2798.7c-12.5,15.7-56.6,23.5-78.5,11.5C378.7,2794.1,431.2,2786.1,448.5,2798.7z M528.9,2810.2    c-8.1,19.3-62.8,27.9-81.4,12.4C457.3,2802.3,508.1,2795.8,528.9,2810.2z M594,2814c12.2-1,36.7-2,49.8,1.9    c24.2,7.2,5.2,20.2-13.4,24.9c-19.1,5-39.8,7.4-64.2,5.7c-11.5-0.8-30.7-3.8-31.6-11.5c-1.1-9.1,17.5-13.5,23.9-15.3    C572.6,2815.8,581.4,2815,594,2814L594,2814z M785.5,2824.5c-1.1,12.1-17.4,19.1-31.6,23.9c-15.5,5.1-31.6,8.3-47.9,9.6    c-10.6,0.7-31.7-0.1-33.5-7.6c-2.8-11.3,22.7-20.2,30.6-23c16.3-5.9,32.3-9.3,46.9-10.5C764.3,2815.8,780.3,2816.2,785.5,2824.5    L785.5,2824.5z M1586,976.7c1.1,0.2,0.5,1,0,1c-64.1,71.9-123.9,149-199.1,213.5c-8.7,7.5-24.6,22.8-36.4,22    c-6.7-0.4-15.1-9.8-22-12.5c-40.3-15.4-83.2,15.9-81.4,60.3c-14.9,4.5-30.9,6.2-47.9,7.6c-16.1,1.6-34.8,5.5-50.7,3.8    c-11.8-1.2-19.5-7.4-35.4-5.7c-7.3,0.8-13.1,5.6-22,6.7c-14,1.8-32.6-3-48.8-6.7c-101.8-23.3-188.5-76.3-288.2-97.6    c12.3-7.5,27.8-11.7,42.1-17.1c2.5-4.6-5-12.1-2.9-16.3c235.8,24.6,441.3-31.7,617.6-90c61.1-20.2,120.6-45.7,175.3-68.9    L1586,976.7z"/>
		<path class="st2" d="M1410.7,1045.6c-176.2,58.3-381.8,114.6-617.6,90c-2.1,4.2,5.3,11.6,2.9,16.3c-14.3,5.5-29.8,9.7-42.1,17.2    c99.6,21.3,186.4,74.2,288.2,97.6c16.1,3.7,35,8.5,48.8,6.7c8.9-1.1,14.7-5.9,22-6.7c16-1.6,23.6,4.5,35.4,5.7    c16,1.6,34.6-2.5,50.7-3.8c16.9-1.4,33-3.1,47.9-7.6c-1.8-44.4,40.9-75.7,81.4-60.3c6.9,2.6,15.3,12,22,12.5    c11.8,0.8,27.7-14.5,36.4-22c75.2-64.5,135.1-141.6,199.1-213.5c0.5,0,1.1-0.8,0-1C1531.4,999.8,1471.8,1025.3,1410.7,1045.6    L1410.7,1045.6z"/>
		<path class="st1" d="M1496.9,2634.9c-63.7,2.9-118.6-0.9-177.1,7.6c-21.3,3.1-60.5,10.6-58.4,34.5c1.3,14.9,28.9,22.9,49.8,25.8    c73,10.5,152.4-1.4,214.5-6.7c68.6-5.8,138.6-11.5,198.2-28.7c18.6-5.4,43.4-13.5,47.9-27.9c12-38.5-39.4-33.4-38.3-61.3    c0.6-15.6,22-22.5,32.5-29.7c11.9-8.1,26.8-20.7,23.9-38.3c-3.4-21-45.3-23-76.6-23c-72.9,0-133.6-2.3-194.4,10.6    c-25.4,5.4-62.7,14.8-61.3,40.2c1.3,23.3,43.4,27.9,62.1,30.6c28.5,4.1,57.4,3.7,69.9,23.9c-3.8,40.5-48.4,40.1-92.9,42.1    L1496.9,2634.9z M913.8,2606.2c-38.7,11.1-74.4,30.8-112,46c-34.5,13.9-76.3,30.1-118.7,39.3c-66.8,14.4-136.8,20.2-201.1,35.4    c-17.3,4.1-48.5,11.6-47.9,31.6c0.4,13.3,19.6,21.4,33.5,26.8c15.5,6,34.6,9.6,49.8,11.5c77.8,9.9,149.8,13,233.6,6.7    c30.4-2.3,91.3-3.6,88.1-34.4c-1.9-18.1-32.9-21.1-57.4-23c-19.1-1.5-64.8,3.3-66.1-14.4c-1-14.3,27.6-22.8,39.3-25.9    c20-5.2,39.1-6.4,57.5-8.6c101-12.2,194.3-19.5,285.3-43.1c16-4.2,44.1-9.5,44-22c0-11.7-21.4-16.3-32.6-19.1    c-42.8-10.8-103.4-13.5-146.5-11.5C941.8,2602.5,929.2,2601.9,913.8,2606.2L913.8,2606.2z M1732.5,2682.8    c1.1,18.4,62.5,18.6,62.1-1c-0.2-13.3-27.4-14.4-37.3-13.4c-11.4,1.2-25.6,2.8-24.9,14.4H1732.5z M1653,2698.3    c-1,20.1,62.1,21,61.3,0c-0.6-13.9-22.4-14.6-35.4-13.4C1665.2,2686.2,1653.4,2689.2,1653,2698.3L1653,2698.3z M1549.6,2715.4    c1.4,11.6,35.6,14,54.6,12.4c9.6-0.8,30.5-4.7,29.7-14.4c-0.4-5.2-15.5-10.7-19.1-11.5c-10.1-2.1-23.9-1.6-29.7-1    C1573.9,2701.8,1548.2,2703.9,1549.6,2715.4z M1433.7,2726.8c0.5,22.9,77.3,22.7,76.6-1c-0.5-16.6-34.8-17.3-49.8-15.3    C1448.9,2712.1,1433.4,2714.5,1433.7,2726.8L1433.7,2726.8z M1286.3,2716.3c-4.4,1.3-19.2,4.6-19.1,14.4    c0.1,11.5,27.5,17.1,42.1,18.2c24.1,1.6,73.7-1.6,72.9-19.2c-0.5-9.2-21.1-14-27.9-15.3c-13.7-2.8-26.5-2.8-39.3-1.9    C1302.6,2713.4,1296.8,2713.3,1286.3,2716.3L1286.3,2716.3z M352.8,2762.3c17.1,10.2,62.4,2.6,67-11.5    C399.9,2742.8,361.7,2746.8,352.8,2762.3z M351.8,2788.1c22,11.1,66.8,4.8,78.5-12.5C408.3,2764.5,363.6,2771,351.8,2788.1z     M370,2810.2c21.7,11.9,66,4.2,78.5-11.5C431.2,2786.2,378.7,2794.1,370,2810.2z M447.6,2822.6c18.6,15.5,73.2,6.9,81.4-12.4    C508.2,2795.8,457.3,2802.4,447.6,2822.6z M558.6,2819.7c-6.4,1.8-24.8,6.3-23.9,15.3c0.9,7.6,20.1,10.9,31.6,11.5    c24.4,1.6,45.1-0.7,64.2-5.7c18.5-4.9,37.6-17.7,13.4-24.9c-13.1-3.9-37.6-2.9-49.8-1.9C581.4,2815,572.7,2815.8,558.6,2819.7    L558.6,2819.7z M750.1,2816.9c-14.6,1.1-30.6,4.7-46.9,10.5c-7.8,2.8-33.5,11.6-30.6,23c1.9,7.8,22.9,8.3,33.5,7.6    c16.3-1.2,32.4-4.5,47.9-9.6c14.2-4.7,30.5-11.8,31.6-23.9C780.3,2816.2,764.3,2815.8,750.1,2816.9L750.1,2816.9z"/>
	</g>
	<path class="st3" d="M1573.2,824.7c-575.6,249.8-864.4,140.5-864.4,140.5l68.3,136.6c411.7,46.8,834.8-174.6,834.8-174.6l21.2-58   c0,0-35.1,7.6-55.2-45.9L1573.2,824.7z"/>
	<path class="st4" d="M1615.2,657.4l-7.3-24.9c0,0-463.9-181.5-569.3-125.9s-241.4,152.2-341,301.4l-1.5,118.5   c0,0,285.9,118.5,875.1-137.1C1571.3,789.6,1563.5,718.3,1615.2,657.4L1615.2,657.4z"/>
	<path d="M1650.9,826.2c-7,6.1-13.6,10.6-20.5,9.2c-20.9-4.1-30.6-44.8-21.5-90.8c9-46,33.3-80,54.3-76c20.1,4,29.8,41.7,22.5,85.6   c0,0-22.3,40.9-32.8,69.6L1650.9,826.2z"/>
	<path class="st3" d="M1936.2,613c0,0-105.4-69.3-217.5,84.9c0,0-14.6-91.7-89.8-52.7c0,0,14.6-131.7,4.9-150.2   c0,0,29.3,8.8,38,28.3c0,0,77.1-75.1,72.2-179.5c0,0,20.5,2.9,20.5,29.3c0,0,28.7-63.5,56.8-97.7l2.7-3.8   c113.2-98.5,8.8,195.1,8.8,195.1s-6.1,14.6-12.3,22.4c-6.2,7.9,53.6-19.9,52.9-42.6c-0.7-22.7,7.5,32,0,41.9   c0,0,99-78.3,101.9-119.3c0,0,15.6,31.2,11.7,56.6c0,0,87.8-66.3,89.8-97.6c0,0,10.7,168.8-156.1,233.2c0,0,27.3,0,61.4-6.8   L1936.2,613z"/>
	<path class="st4" d="M1991.8,815c0,0,352.2-78,164.9,47.8s-214.6,120-214.6,120S1980.1,926.3,1991.8,815z M1936.2,987.6   l-323.9,141.5c0,0,100.5-85.9,66.3-132.7C1678.6,996.4,1848.4,971.1,1936.2,987.6L1936.2,987.6z"/>
	<path class="st0" d="M1635.7,963.3c89.7-248.8,134.9-276.8,134.9-276.8c42.5-45.8,96.1-65.9,138.4-46.6   c36.6,16.8,56.3,59.3,56.4,110.7l0,3.3c0,0-6.7,125.5-41.9,196.7c0,0-130.7-18.5-271.2,18.5L1635.7,963.3z"/>
	<path d="M1763.8,852.1c0,0,70.2-139.8,113.1-107.5c0,0,10.6,12.6-16.9,104.7c0,0,113.3-138.4-4.2-141.9   C1855.9,707.4,1777.2,704.6,1763.8,852.1L1763.8,852.1z M672.1,1126.5c0,0-92.5-139.9-100.9-112s5.6,77.1,7.8,90.6   c2.2,13.5-70.7-86-21.8-122.3C606,946.5,666.4,1059,672,1126.4L672.1,1126.5z"/>
	<path class="st4" d="M564.3,1267.9h3.6c0,0,53.6-39,69.4-45.1c15.8-6.1-19.5,58.5,74.3,58.5s-243.6,12.2-320.3-54.8   c0,0-6.7-29,96.2-76.7c0,0,62.1,110.9,76.8,117.9L564.3,1267.9z"/>
	<path d="M894.4,1305.7c-106.1-46.9-185.5-60.5-185.5-60.5c-0.8,0.1-1.6,0.1-2.4,0.1c-16.7,0-30.2-10.8-30.2-24.1   c0-13.3,13.5-24.1,30.2-24.1c1.4,0,2.8,0.1,4.2,0.2c0,0,77.9,13,199.1,63.7l13.2,5.4c112.7,41.7,158.1,42.8,158.1,42.8   c15.2,1.3,19.2,1.3,21.2-0.2s14.6-6.4,14.6-6.4c16,0.4,28.9,11.5,28.9,25.2c0,13.1-22.5,27.4-37.7,28.6c0,0-83.4,6.6-209.3-49   L894.4,1305.7z M1648.6,1024.6c0.3-1.3,0.4-2.7,0.4-4.1c0-12.1-10-21.7-22.3-21.7c-3,0-6,0.6-8.8,1.8l-92.2,100.7   c-37.8,42.8-130.2,143.9-168.9,148.4l-21.8,2.3c-1.8-3.6-11.7-12.4-11.7-12.4c-6.2-5.5-14.6-7.8-22.6-5.4   c-12.7,3.9-19.6,18.6-15.3,32.6c1.6,5.2,4.6,9.9,8.8,13.5c0,0,64,64.8,174.2-50.4l120.2-127c0,0,55.9-61,59.6-75.6L1648.6,1024.6z"/>
	<path class="st5" d="M1841.2,1478.2c0,122.3-99.3,221.6-221.9,221.6s-221.8-99.3-221.8-221.6c0-122.5,99.3-221.9,221.8-221.9   c122.5,0,221.8,99.2,221.9,221.7V1478.2z M1152.3,1640.2c0,122.4-99.3,221.6-221.9,221.6s-221.7-99.1-221.7-221.6   s99.3-221.9,221.8-221.9c122.5,0,221.9,99.3,221.9,221.9H1152.3z M1337.2,1995.4c5.8,33.2,19.5,103.4,66.3,97.5   c46.8-5.9,29.3-99.5,29.3-99.5s-80-3.9-87.8,0L1337.2,1995.4z M1309.9,2004.7c0,0-43,18.3-77.2,40.7c0,0,17.1,87.3,74,61.2   c0,0,37.5-8.3,5.5-96L1309.9,2004.7z M1200.8,1810.8c0,0-273.1,82.2-139.1,220.3c87.8,90.5,209.4-63.6,274.2-62.1   c0,0,14.9-6.7,45.9-2.7c31.1,4,233.7,20.3,252.6-60.8s-5.4-94.6-20.3-104c-14.9-9.4-121.6-72.9-281-28.4L1200.8,1810.8z"/>
	<circle cx="911" cy="1716.3" r="69.5"/>
	<ellipse cx="1590.1" cy="1550.5" rx="69.5" ry="69.5"/>
	<ellipse transform="matrix(0.9801 -0.1986 0.1986 0.9801 -329.7948 294.0053)" cx="1300.8" cy="1791.1" rx="123.1" ry="67.2"/>
	<path class="st3" d="M1173.2,1855c0,0-171.7,80-91.5,146.3c80.2,66.3,119-41,236.1-60.5c117.1-19.5,251.7,11.7,279-39   s37.2-91.5-154.2-109.3c0,0-17.5,83.9-119,93.7c-101.5,9.7-119-7.8-150.2-31.2L1173.2,1855z"/>
	<path class="st6" d="M2532.2,2232.3c0,0,283.5,60.1-126.4,120.2C2405.8,2352.5,2502.9,2312.5,2532.2,2232.3z"/>
	<path class="st3" d="M2338,2260c0,0-9.3-144.8-95.6-223.4c-86.3-78.6,72.4-103.2,121.7-81.7c49.3,21.6,254.3,163.3,74,345.2   c0,0-77,55.5-98.6-32.4L2338,2260z"/>
	<path d="M526.4,2227.7c0,0-14.6,73.2-2.9,103.9c0,0-247.3-42.5-11.7-101L526.4,2227.7z"/>
	<path class="st3" d="M644.9,2062.3c0,0-151.9,179.7-73.2,326.3c64.4,120,194.6-16.1,197.6-20.5L644.9,2062.3z"/>
</g>
</svg>